<svg xmlns="http://www.w3.org/2000/svg" viewBox="0 0 200 200" width="200" height="200">
  <style>
    .dot { fill: white; }
  </style>
  <g class="sphere">
    <circle class="dot" cx="100.0" cy="0.0" r="1.5"/>
    <circle class="dot" cx="76.0" cy="4.0" r="1.5"/>
    <circle class="dot" cx="80.0" cy="4.0" r="1.5"/>
    <circle class="dot" cx="84.0" cy="4.0" r="1.5"/>
    <circle class="dot" cx="92.0" cy="4.0" r="1.5"/>
    <circle class="dot" cx="96.0" cy="4.0" r="1.5"/>
    <circle class="dot" cx="100.0" cy="4.0" r="1.5"/>
    <circle class="dot" cx="108.0" cy="4.0" r="1.5"/>
    <circle class="dot" cx="116.0" cy="4.0" r="1.5"/>
    <circle class="dot" cx="124.0" cy="4.0" r="1.5"/>
    <circle class="dot" cx="64.0" cy="8.0" r="1.5"/>
    <circle class="dot" cx="68.0" cy="8.0" r="1.5"/>
    <circle class="dot" cx="72.0" cy="8.0" r="1.5"/>
    <circle class="dot" cx="76.0" cy="8.0" r="1.5"/>
    <circle class="dot" cx="80.0" cy="8.0" r="1.5"/>
    <circle class="dot" cx="84.0" cy="8.0" r="1.5"/>
    <circle class="dot" cx="88.0" cy="8.0" r="1.5"/>
    <circle class="dot" cx="92.0" cy="8.0" r="1.5"/>
    <circle class="dot" cx="96.0" cy="8.0" r="1.5"/>
    <circle class="dot" cx="100.0" cy="8.0" r="1.5"/>
    <circle class="dot" cx="104.0" cy="8.0" r="1.5"/>
    <circle class="dot" cx="108.0" cy="8.0" r="1.5"/>
    <circle class="dot" cx="112.0" cy="8.0" r="1.5"/>
    <circle class="dot" cx="120.0" cy="8.0" r="1.5"/>
    <circle class="dot" cx="124.0" cy="8.0" r="1.5"/>
    <circle class="dot" cx="128.0" cy="8.0" r="1.5"/>
    <circle class="dot" cx="136.0" cy="8.0" r="1.5"/>
    <circle class="dot" cx="56.0" cy="12.0" r="1.5"/>
    <circle class="dot" cx="60.0" cy="12.0" r="1.5"/>
    <circle class="dot" cx="68.0" cy="12.0" r="1.5"/>
    <circle class="dot" cx="72.0" cy="12.0" r="1.5"/>
    <circle class="dot" cx="76.0" cy="12.0" r="1.5"/>
    <circle class="dot" cx="84.0" cy="12.0" r="1.5"/>
    <circle class="dot" cx="88.0" cy="12.0" r="1.5"/>
    <circle class="dot" cx="92.0" cy="12.0" r="1.5"/>
    <circle class="dot" cx="100.0" cy="12.0" r="1.5"/>
    <circle class="dot" cx="108.0" cy="12.0" r="1.5"/>
    <circle class="dot" cx="116.0" cy="12.0" r="1.5"/>
    <circle class="dot" cx="124.0" cy="12.0" r="1.5"/>
    <circle class="dot" cx="132.0" cy="12.0" r="1.5"/>
    <circle class="dot" cx="140.0" cy="12.0" r="1.5"/>
    <circle class="dot" cx="48.0" cy="16.0" r="1.5"/>
    <circle class="dot" cx="52.0" cy="16.0" r="1.5"/>
    <circle class="dot" cx="56.0" cy="16.0" r="1.5"/>
    <circle class="dot" cx="60.0" cy="16.0" r="1.5"/>
    <circle class="dot" cx="64.0" cy="16.0" r="1.5"/>
    <circle class="dot" cx="68.0" cy="16.0" r="1.5"/>
    <circle class="dot" cx="72.0" cy="16.0" r="1.5"/>
    <circle class="dot" cx="76.0" cy="16.0" r="1.5"/>
    <circle class="dot" cx="80.0" cy="16.0" r="1.5"/>
    <circle class="dot" cx="84.0" cy="16.0" r="1.5"/>
    <circle class="dot" cx="88.0" cy="16.0" r="1.5"/>
    <circle class="dot" cx="92.0" cy="16.0" r="1.5"/>
    <circle class="dot" cx="96.0" cy="16.0" r="1.5"/>
    <circle class="dot" cx="100.0" cy="16.0" r="1.5"/>
    <circle class="dot" cx="104.0" cy="16.0" r="1.5"/>
    <circle class="dot" cx="108.0" cy="16.0" r="1.5"/>
    <circle class="dot" cx="112.0" cy="16.0" r="1.5"/>
    <circle class="dot" cx="116.0" cy="16.0" r="1.5"/>
    <circle class="dot" cx="120.0" cy="16.0" r="1.5"/>
    <circle class="dot" cx="124.0" cy="16.0" r="1.5"/>
    <circle class="dot" cx="128.0" cy="16.0" r="1.5"/>
    <circle class="dot" cx="132.0" cy="16.0" r="1.5"/>
    <circle class="dot" cx="136.0" cy="16.0" r="1.5"/>
    <circle class="dot" cx="144.0" cy="16.0" r="1.5"/>
    <circle class="dot" cx="152.0" cy="16.0" r="1.5"/>
    <circle class="dot" cx="44.0" cy="20.0" r="1.5"/>
    <circle class="dot" cx="48.0" cy="20.0" r="1.5"/>
    <circle class="dot" cx="52.0" cy="20.0" r="1.5"/>
    <circle class="dot" cx="56.0" cy="20.0" r="1.5"/>
    <circle class="dot" cx="60.0" cy="20.0" r="1.5"/>
    <circle class="dot" cx="64.0" cy="20.0" r="1.5"/>
    <circle class="dot" cx="68.0" cy="20.0" r="1.5"/>
    <circle class="dot" cx="72.0" cy="20.0" r="1.5"/>
    <circle class="dot" cx="76.0" cy="20.0" r="1.5"/>
    <circle class="dot" cx="80.0" cy="20.0" r="1.5"/>
    <circle class="dot" cx="84.0" cy="20.0" r="1.5"/>
    <circle class="dot" cx="88.0" cy="20.0" r="1.5"/>
    <circle class="dot" cx="92.0" cy="20.0" r="1.5"/>
    <circle class="dot" cx="96.0" cy="20.0" r="1.5"/>
    <circle class="dot" cx="100.0" cy="20.0" r="1.5"/>
    <circle class="dot" cx="108.0" cy="20.0" r="1.5"/>
    <circle class="dot" cx="112.0" cy="20.0" r="1.5"/>
    <circle class="dot" cx="116.0" cy="20.0" r="1.5"/>
    <circle class="dot" cx="124.0" cy="20.0" r="1.5"/>
    <circle class="dot" cx="132.0" cy="20.0" r="1.5"/>
    <circle class="dot" cx="140.0" cy="20.0" r="1.5"/>
    <circle class="dot" cx="148.0" cy="20.0" r="1.5"/>
    <circle class="dot" cx="36.0" cy="24.0" r="1.5"/>
    <circle class="dot" cx="40.0" cy="24.0" r="1.5"/>
    <circle class="dot" cx="44.0" cy="24.0" r="1.5"/>
    <circle class="dot" cx="48.0" cy="24.0" r="1.5"/>
    <circle class="dot" cx="52.0" cy="24.0" r="1.5"/>
    <circle class="dot" cx="56.0" cy="24.0" r="1.5"/>
    <circle class="dot" cx="60.0" cy="24.0" r="1.5"/>
    <circle class="dot" cx="64.0" cy="24.0" r="1.5"/>
    <circle class="dot" cx="68.0" cy="24.0" r="1.5"/>
    <circle class="dot" cx="72.0" cy="24.0" r="1.5"/>
    <circle class="dot" cx="76.0" cy="24.0" r="1.5"/>
    <circle class="dot" cx="80.0" cy="24.0" r="1.5"/>
    <circle class="dot" cx="84.0" cy="24.0" r="1.5"/>
    <circle class="dot" cx="88.0" cy="24.0" r="1.5"/>
    <circle class="dot" cx="92.0" cy="24.0" r="1.5"/>
    <circle class="dot" cx="96.0" cy="24.0" r="1.5"/>
    <circle class="dot" cx="100.0" cy="24.0" r="1.5"/>
    <circle class="dot" cx="104.0" cy="24.0" r="1.5"/>
    <circle class="dot" cx="108.0" cy="24.0" r="1.5"/>
    <circle class="dot" cx="112.0" cy="24.0" r="1.5"/>
    <circle class="dot" cx="116.0" cy="24.0" r="1.5"/>
    <circle class="dot" cx="120.0" cy="24.0" r="1.5"/>
    <circle class="dot" cx="124.0" cy="24.0" r="1.5"/>
    <circle class="dot" cx="128.0" cy="24.0" r="1.5"/>
    <circle class="dot" cx="136.0" cy="24.0" r="1.5"/>
    <circle class="dot" cx="144.0" cy="24.0" r="1.5"/>
    <circle class="dot" cx="152.0" cy="24.0" r="1.5"/>
    <circle class="dot" cx="160.0" cy="24.0" r="1.5"/>
    <circle class="dot" cx="36.0" cy="28.0" r="1.5"/>
    <circle class="dot" cx="40.0" cy="28.0" r="1.5"/>
    <circle class="dot" cx="44.0" cy="28.0" r="1.5"/>
    <circle class="dot" cx="48.0" cy="28.0" r="1.5"/>
    <circle class="dot" cx="52.0" cy="28.0" r="1.5"/>
    <circle class="dot" cx="56.0" cy="28.0" r="1.5"/>
    <circle class="dot" cx="60.0" cy="28.0" r="1.5"/>
    <circle class="dot" cx="68.0" cy="28.0" r="1.5"/>
    <circle class="dot" cx="72.0" cy="28.0" r="1.5"/>
    <circle class="dot" cx="76.0" cy="28.0" r="1.5"/>
    <circle class="dot" cx="84.0" cy="28.0" r="1.5"/>
    <circle class="dot" cx="88.0" cy="28.0" r="1.5"/>
    <circle class="dot" cx="92.0" cy="28.0" r="1.5"/>
    <circle class="dot" cx="100.0" cy="28.0" r="1.5"/>
    <circle class="dot" cx="108.0" cy="28.0" r="1.5"/>
    <circle class="dot" cx="116.0" cy="28.0" r="1.5"/>
    <circle class="dot" cx="124.0" cy="28.0" r="1.5"/>
    <circle class="dot" cx="132.0" cy="28.0" r="1.5"/>
    <circle class="dot" cx="140.0" cy="28.0" r="1.5"/>
    <circle class="dot" cx="148.0" cy="28.0" r="1.5"/>
    <circle class="dot" cx="156.0" cy="28.0" r="1.5"/>
    <circle class="dot" cx="28.0" cy="32.0" r="1.5"/>
    <circle class="dot" cx="32.0" cy="32.0" r="1.5"/>
    <circle class="dot" cx="36.0" cy="32.0" r="1.5"/>
    <circle class="dot" cx="40.0" cy="32.0" r="1.5"/>
    <circle class="dot" cx="44.0" cy="32.0" r="1.5"/>
    <circle class="dot" cx="48.0" cy="32.0" r="1.5"/>
    <circle class="dot" cx="52.0" cy="32.0" r="1.5"/>
    <circle class="dot" cx="56.0" cy="32.0" r="1.5"/>
    <circle class="dot" cx="60.0" cy="32.0" r="1.5"/>
    <circle class="dot" cx="64.0" cy="32.0" r="1.5"/>
    <circle class="dot" cx="68.0" cy="32.0" r="1.5"/>
    <circle class="dot" cx="72.0" cy="32.0" r="1.5"/>
    <circle class="dot" cx="76.0" cy="32.0" r="1.5"/>
    <circle class="dot" cx="80.0" cy="32.0" r="1.5"/>
    <circle class="dot" cx="84.0" cy="32.0" r="1.5"/>
    <circle class="dot" cx="88.0" cy="32.0" r="1.5"/>
    <circle class="dot" cx="92.0" cy="32.0" r="1.5"/>
    <circle class="dot" cx="96.0" cy="32.0" r="1.5"/>
    <circle class="dot" cx="100.0" cy="32.0" r="1.5"/>
    <circle class="dot" cx="104.0" cy="32.0" r="1.5"/>
    <circle class="dot" cx="108.0" cy="32.0" r="1.5"/>
    <circle class="dot" cx="112.0" cy="32.0" r="1.5"/>
    <circle class="dot" cx="116.0" cy="32.0" r="1.5"/>
    <circle class="dot" cx="120.0" cy="32.0" r="1.5"/>
    <circle class="dot" cx="124.0" cy="32.0" r="1.5"/>
    <circle class="dot" cx="128.0" cy="32.0" r="1.5"/>
    <circle class="dot" cx="132.0" cy="32.0" r="1.5"/>
    <circle class="dot" cx="136.0" cy="32.0" r="1.5"/>
    <circle class="dot" cx="144.0" cy="32.0" r="1.5"/>
    <circle class="dot" cx="152.0" cy="32.0" r="1.5"/>
    <circle class="dot" cx="160.0" cy="32.0" r="1.5"/>
    <circle class="dot" cx="168.0" cy="32.0" r="1.5"/>
    <circle class="dot" cx="28.0" cy="36.0" r="1.5"/>
    <circle class="dot" cx="32.0" cy="36.0" r="1.5"/>
    <circle class="dot" cx="36.0" cy="36.0" r="1.5"/>
    <circle class="dot" cx="40.0" cy="36.0" r="1.5"/>
    <circle class="dot" cx="44.0" cy="36.0" r="1.5"/>
    <circle class="dot" cx="48.0" cy="36.0" r="1.5"/>
    <circle class="dot" cx="52.0" cy="36.0" r="1.5"/>
    <circle class="dot" cx="56.0" cy="36.0" r="1.5"/>
    <circle class="dot" cx="60.0" cy="36.0" r="1.5"/>
    <circle class="dot" cx="64.0" cy="36.0" r="1.5"/>
    <circle class="dot" cx="68.0" cy="36.0" r="1.5"/>
    <circle class="dot" cx="72.0" cy="36.0" r="1.5"/>
    <circle class="dot" cx="76.0" cy="36.0" r="1.5"/>
    <circle class="dot" cx="80.0" cy="36.0" r="1.5"/>
    <circle class="dot" cx="84.0" cy="36.0" r="1.5"/>
    <circle class="dot" cx="88.0" cy="36.0" r="1.5"/>
    <circle class="dot" cx="92.0" cy="36.0" r="1.5"/>
    <circle class="dot" cx="96.0" cy="36.0" r="1.5"/>
    <circle class="dot" cx="100.0" cy="36.0" r="1.5"/>
    <circle class="dot" cx="108.0" cy="36.0" r="1.5"/>
    <circle class="dot" cx="112.0" cy="36.0" r="1.5"/>
    <circle class="dot" cx="116.0" cy="36.0" r="1.5"/>
    <circle class="dot" cx="124.0" cy="36.0" r="1.5"/>
    <circle class="dot" cx="132.0" cy="36.0" r="1.5"/>
    <circle class="dot" cx="140.0" cy="36.0" r="1.5"/>
    <circle class="dot" cx="148.0" cy="36.0" r="1.5"/>
    <circle class="dot" cx="156.0" cy="36.0" r="1.5"/>
    <circle class="dot" cx="164.0" cy="36.0" r="1.5"/>
    <circle class="dot" cx="20.0" cy="40.0" r="1.5"/>
    <circle class="dot" cx="24.0" cy="40.0" r="1.5"/>
    <circle class="dot" cx="28.0" cy="40.0" r="1.5"/>
    <circle class="dot" cx="32.0" cy="40.0" r="1.5"/>
    <circle class="dot" cx="36.0" cy="40.0" r="1.5"/>
    <circle class="dot" cx="40.0" cy="40.0" r="1.5"/>
    <circle class="dot" cx="44.0" cy="40.0" r="1.5"/>
    <circle class="dot" cx="48.0" cy="40.0" r="1.5"/>
    <circle class="dot" cx="52.0" cy="40.0" r="1.5"/>
    <circle class="dot" cx="56.0" cy="40.0" r="1.5"/>
    <circle class="dot" cx="60.0" cy="40.0" r="1.5"/>
    <circle class="dot" cx="64.0" cy="40.0" r="1.5"/>
    <circle class="dot" cx="68.0" cy="40.0" r="1.5"/>
    <circle class="dot" cx="72.0" cy="40.0" r="1.5"/>
    <circle class="dot" cx="76.0" cy="40.0" r="1.5"/>
    <circle class="dot" cx="80.0" cy="40.0" r="1.5"/>
    <circle class="dot" cx="84.0" cy="40.0" r="1.5"/>
    <circle class="dot" cx="88.0" cy="40.0" r="1.5"/>
    <circle class="dot" cx="92.0" cy="40.0" r="1.5"/>
    <circle class="dot" cx="96.0" cy="40.0" r="1.5"/>
    <circle class="dot" cx="100.0" cy="40.0" r="1.5"/>
    <circle class="dot" cx="104.0" cy="40.0" r="1.5"/>
    <circle class="dot" cx="108.0" cy="40.0" r="1.5"/>
    <circle class="dot" cx="112.0" cy="40.0" r="1.5"/>
    <circle class="dot" cx="116.0" cy="40.0" r="1.5"/>
    <circle class="dot" cx="120.0" cy="40.0" r="1.5"/>
    <circle class="dot" cx="124.0" cy="40.0" r="1.5"/>
    <circle class="dot" cx="128.0" cy="40.0" r="1.5"/>
    <circle class="dot" cx="136.0" cy="40.0" r="1.5"/>
    <circle class="dot" cx="140.0" cy="40.0" r="1.5"/>
    <circle class="dot" cx="144.0" cy="40.0" r="1.5"/>
    <circle class="dot" cx="152.0" cy="40.0" r="1.5"/>
    <circle class="dot" cx="160.0" cy="40.0" r="1.5"/>
    <circle class="dot" cx="168.0" cy="40.0" r="1.5"/>
    <circle class="dot" cx="20.0" cy="44.0" r="1.5"/>
    <circle class="dot" cx="24.0" cy="44.0" r="1.5"/>
    <circle class="dot" cx="28.0" cy="44.0" r="1.5"/>
    <circle class="dot" cx="32.0" cy="44.0" r="1.5"/>
    <circle class="dot" cx="36.0" cy="44.0" r="1.5"/>
    <circle class="dot" cx="40.0" cy="44.0" r="1.5"/>
    <circle class="dot" cx="44.0" cy="44.0" r="1.5"/>
    <circle class="dot" cx="48.0" cy="44.0" r="1.5"/>
    <circle class="dot" cx="52.0" cy="44.0" r="1.5"/>
    <circle class="dot" cx="56.0" cy="44.0" r="1.5"/>
    <circle class="dot" cx="60.0" cy="44.0" r="1.5"/>
    <circle class="dot" cx="64.0" cy="44.0" r="1.5"/>
    <circle class="dot" cx="68.0" cy="44.0" r="1.5"/>
    <circle class="dot" cx="72.0" cy="44.0" r="1.5"/>
    <circle class="dot" cx="76.0" cy="44.0" r="1.5"/>
    <circle class="dot" cx="84.0" cy="44.0" r="1.5"/>
    <circle class="dot" cx="88.0" cy="44.0" r="1.5"/>
    <circle class="dot" cx="92.0" cy="44.0" r="1.5"/>
    <circle class="dot" cx="100.0" cy="44.0" r="1.5"/>
    <circle class="dot" cx="104.0" cy="44.0" r="1.5"/>
    <circle class="dot" cx="108.0" cy="44.0" r="1.5"/>
    <circle class="dot" cx="116.0" cy="44.0" r="1.5"/>
    <circle class="dot" cx="124.0" cy="44.0" r="1.5"/>
    <circle class="dot" cx="132.0" cy="44.0" r="1.5"/>
    <circle class="dot" cx="140.0" cy="44.0" r="1.5"/>
    <circle class="dot" cx="148.0" cy="44.0" r="1.5"/>
    <circle class="dot" cx="156.0" cy="44.0" r="1.5"/>
    <circle class="dot" cx="16.0" cy="48.0" r="1.5"/>
    <circle class="dot" cx="20.0" cy="48.0" r="1.5"/>
    <circle class="dot" cx="24.0" cy="48.0" r="1.5"/>
    <circle class="dot" cx="28.0" cy="48.0" r="1.5"/>
    <circle class="dot" cx="32.0" cy="48.0" r="1.5"/>
    <circle class="dot" cx="36.0" cy="48.0" r="1.5"/>
    <circle class="dot" cx="40.0" cy="48.0" r="1.5"/>
    <circle class="dot" cx="44.0" cy="48.0" r="1.5"/>
    <circle class="dot" cx="48.0" cy="48.0" r="1.5"/>
    <circle class="dot" cx="52.0" cy="48.0" r="1.5"/>
    <circle class="dot" cx="56.0" cy="48.0" r="1.5"/>
    <circle class="dot" cx="60.0" cy="48.0" r="1.5"/>
    <circle class="dot" cx="64.0" cy="48.0" r="1.5"/>
    <circle class="dot" cx="68.0" cy="48.0" r="1.5"/>
    <circle class="dot" cx="72.0" cy="48.0" r="1.5"/>
    <circle class="dot" cx="76.0" cy="48.0" r="1.5"/>
    <circle class="dot" cx="80.0" cy="48.0" r="1.5"/>
    <circle class="dot" cx="84.0" cy="48.0" r="1.5"/>
    <circle class="dot" cx="88.0" cy="48.0" r="1.5"/>
    <circle class="dot" cx="92.0" cy="48.0" r="1.5"/>
    <circle class="dot" cx="96.0" cy="48.0" r="1.5"/>
    <circle class="dot" cx="100.0" cy="48.0" r="1.5"/>
    <circle class="dot" cx="104.0" cy="48.0" r="1.5"/>
    <circle class="dot" cx="108.0" cy="48.0" r="1.5"/>
    <circle class="dot" cx="112.0" cy="48.0" r="1.5"/>
    <circle class="dot" cx="116.0" cy="48.0" r="1.5"/>
    <circle class="dot" cx="120.0" cy="48.0" r="1.5"/>
    <circle class="dot" cx="124.0" cy="48.0" r="1.5"/>
    <circle class="dot" cx="128.0" cy="48.0" r="1.5"/>
    <circle class="dot" cx="132.0" cy="48.0" r="1.5"/>
    <circle class="dot" cx="136.0" cy="48.0" r="1.5"/>
    <circle class="dot" cx="144.0" cy="48.0" r="1.5"/>
    <circle class="dot" cx="152.0" cy="48.0" r="1.5"/>
    <circle class="dot" cx="160.0" cy="48.0" r="1.5"/>
    <circle class="dot" cx="168.0" cy="48.0" r="1.5"/>
    <circle class="dot" cx="176.0" cy="48.0" r="1.5"/>
    <circle class="dot" cx="16.0" cy="52.0" r="1.5"/>
    <circle class="dot" cx="20.0" cy="52.0" r="1.5"/>
    <circle class="dot" cx="24.0" cy="52.0" r="1.5"/>
    <circle class="dot" cx="28.0" cy="52.0" r="1.5"/>
    <circle class="dot" cx="32.0" cy="52.0" r="1.5"/>
    <circle class="dot" cx="36.0" cy="52.0" r="1.5"/>
    <circle class="dot" cx="40.0" cy="52.0" r="1.5"/>
    <circle class="dot" cx="44.0" cy="52.0" r="1.5"/>
    <circle class="dot" cx="48.0" cy="52.0" r="1.5"/>
    <circle class="dot" cx="52.0" cy="52.0" r="1.5"/>
    <circle class="dot" cx="56.0" cy="52.0" r="1.5"/>
    <circle class="dot" cx="60.0" cy="52.0" r="1.5"/>
    <circle class="dot" cx="64.0" cy="52.0" r="1.5"/>
    <circle class="dot" cx="68.0" cy="52.0" r="1.5"/>
    <circle class="dot" cx="72.0" cy="52.0" r="1.5"/>
    <circle class="dot" cx="76.0" cy="52.0" r="1.5"/>
    <circle class="dot" cx="80.0" cy="52.0" r="1.5"/>
    <circle class="dot" cx="84.0" cy="52.0" r="1.5"/>
    <circle class="dot" cx="92.0" cy="52.0" r="1.5"/>
    <circle class="dot" cx="96.0" cy="52.0" r="1.5"/>
    <circle class="dot" cx="100.0" cy="52.0" r="1.5"/>
    <circle class="dot" cx="108.0" cy="52.0" r="1.5"/>
    <circle class="dot" cx="116.0" cy="52.0" r="1.5"/>
    <circle class="dot" cx="124.0" cy="52.0" r="1.5"/>
    <circle class="dot" cx="132.0" cy="52.0" r="1.5"/>
    <circle class="dot" cx="140.0" cy="52.0" r="1.5"/>
    <circle class="dot" cx="148.0" cy="52.0" r="1.5"/>
    <circle class="dot" cx="156.0" cy="52.0" r="1.5"/>
    <circle class="dot" cx="164.0" cy="52.0" r="1.5"/>
    <circle class="dot" cx="12.0" cy="56.0" r="1.5"/>
    <circle class="dot" cx="16.0" cy="56.0" r="1.5"/>
    <circle class="dot" cx="20.0" cy="56.0" r="1.5"/>
    <circle class="dot" cx="24.0" cy="56.0" r="1.5"/>
    <circle class="dot" cx="28.0" cy="56.0" r="1.5"/>
    <circle class="dot" cx="32.0" cy="56.0" r="1.5"/>
    <circle class="dot" cx="36.0" cy="56.0" r="1.5"/>
    <circle class="dot" cx="40.0" cy="56.0" r="1.5"/>
    <circle class="dot" cx="44.0" cy="56.0" r="1.5"/>
    <circle class="dot" cx="48.0" cy="56.0" r="1.5"/>
    <circle class="dot" cx="52.0" cy="56.0" r="1.5"/>
    <circle class="dot" cx="56.0" cy="56.0" r="1.5"/>
    <circle class="dot" cx="60.0" cy="56.0" r="1.5"/>
    <circle class="dot" cx="64.0" cy="56.0" r="1.5"/>
    <circle class="dot" cx="68.0" cy="56.0" r="1.5"/>
    <circle class="dot" cx="72.0" cy="56.0" r="1.5"/>
    <circle class="dot" cx="76.0" cy="56.0" r="1.5"/>
    <circle class="dot" cx="80.0" cy="56.0" r="1.5"/>
    <circle class="dot" cx="84.0" cy="56.0" r="1.5"/>
    <circle class="dot" cx="88.0" cy="56.0" r="1.5"/>
    <circle class="dot" cx="92.0" cy="56.0" r="1.5"/>
    <circle class="dot" cx="96.0" cy="56.0" r="1.5"/>
    <circle class="dot" cx="100.0" cy="56.0" r="1.5"/>
    <circle class="dot" cx="104.0" cy="56.0" r="1.5"/>
    <circle class="dot" cx="108.0" cy="56.0" r="1.5"/>
    <circle class="dot" cx="112.0" cy="56.0" r="1.5"/>
    <circle class="dot" cx="116.0" cy="56.0" r="1.5"/>
    <circle class="dot" cx="120.0" cy="56.0" r="1.5"/>
    <circle class="dot" cx="124.0" cy="56.0" r="1.5"/>
    <circle class="dot" cx="128.0" cy="56.0" r="1.5"/>
    <circle class="dot" cx="136.0" cy="56.0" r="1.5"/>
    <circle class="dot" cx="144.0" cy="56.0" r="1.5"/>
    <circle class="dot" cx="152.0" cy="56.0" r="1.5"/>
    <circle class="dot" cx="160.0" cy="56.0" r="1.5"/>
    <circle class="dot" cx="168.0" cy="56.0" r="1.5"/>
    <circle class="dot" cx="12.0" cy="60.0" r="1.5"/>
    <circle class="dot" cx="20.0" cy="60.0" r="1.5"/>
    <circle class="dot" cx="24.0" cy="60.0" r="1.5"/>
    <circle class="dot" cx="28.0" cy="60.0" r="1.5"/>
    <circle class="dot" cx="36.0" cy="60.0" r="1.5"/>
    <circle class="dot" cx="40.0" cy="60.0" r="1.5"/>
    <circle class="dot" cx="44.0" cy="60.0" r="1.5"/>
    <circle class="dot" cx="48.0" cy="60.0" r="1.5"/>
    <circle class="dot" cx="52.0" cy="60.0" r="1.5"/>
    <circle class="dot" cx="56.0" cy="60.0" r="1.5"/>
    <circle class="dot" cx="60.0" cy="60.0" r="1.5"/>
    <circle class="dot" cx="68.0" cy="60.0" r="1.5"/>
    <circle class="dot" cx="72.0" cy="60.0" r="1.5"/>
    <circle class="dot" cx="76.0" cy="60.0" r="1.5"/>
    <circle class="dot" cx="84.0" cy="60.0" r="1.5"/>
    <circle class="dot" cx="88.0" cy="60.0" r="1.5"/>
    <circle class="dot" cx="92.0" cy="60.0" r="1.5"/>
    <circle class="dot" cx="100.0" cy="60.0" r="1.5"/>
    <circle class="dot" cx="108.0" cy="60.0" r="1.5"/>
    <circle class="dot" cx="116.0" cy="60.0" r="1.5"/>
    <circle class="dot" cx="124.0" cy="60.0" r="1.5"/>
    <circle class="dot" cx="132.0" cy="60.0" r="1.5"/>
    <circle class="dot" cx="140.0" cy="60.0" r="1.5"/>
    <circle class="dot" cx="148.0" cy="60.0" r="1.5"/>
    <circle class="dot" cx="156.0" cy="60.0" r="1.5"/>
    <circle class="dot" cx="8.0" cy="64.0" r="1.5"/>
    <circle class="dot" cx="12.0" cy="64.0" r="1.5"/>
    <circle class="dot" cx="16.0" cy="64.0" r="1.5"/>
    <circle class="dot" cx="20.0" cy="64.0" r="1.5"/>
    <circle class="dot" cx="24.0" cy="64.0" r="1.5"/>
    <circle class="dot" cx="28.0" cy="64.0" r="1.5"/>
    <circle class="dot" cx="32.0" cy="64.0" r="1.5"/>
    <circle class="dot" cx="36.0" cy="64.0" r="1.5"/>
    <circle class="dot" cx="40.0" cy="64.0" r="1.5"/>
    <circle class="dot" cx="44.0" cy="64.0" r="1.5"/>
    <circle class="dot" cx="48.0" cy="64.0" r="1.5"/>
    <circle class="dot" cx="52.0" cy="64.0" r="1.5"/>
    <circle class="dot" cx="56.0" cy="64.0" r="1.5"/>
    <circle class="dot" cx="60.0" cy="64.0" r="1.5"/>
    <circle class="dot" cx="64.0" cy="64.0" r="1.5"/>
    <circle class="dot" cx="68.0" cy="64.0" r="1.5"/>
    <circle class="dot" cx="72.0" cy="64.0" r="1.5"/>
    <circle class="dot" cx="76.0" cy="64.0" r="1.5"/>
    <circle class="dot" cx="80.0" cy="64.0" r="1.5"/>
    <circle class="dot" cx="84.0" cy="64.0" r="1.5"/>
    <circle class="dot" cx="88.0" cy="64.0" r="1.5"/>
    <circle class="dot" cx="92.0" cy="64.0" r="1.5"/>
    <circle class="dot" cx="96.0" cy="64.0" r="1.5"/>
    <circle class="dot" cx="100.0" cy="64.0" r="1.5"/>
    <circle class="dot" cx="104.0" cy="64.0" r="1.5"/>
    <circle class="dot" cx="108.0" cy="64.0" r="1.5"/>
    <circle class="dot" cx="112.0" cy="64.0" r="1.5"/>
    <circle class="dot" cx="116.0" cy="64.0" r="1.5"/>
    <circle class="dot" cx="120.0" cy="64.0" r="1.5"/>
    <circle class="dot" cx="128.0" cy="64.0" r="1.5"/>
    <circle class="dot" cx="132.0" cy="64.0" r="1.5"/>
    <circle class="dot" cx="136.0" cy="64.0" r="1.5"/>
    <circle class="dot" cx="144.0" cy="64.0" r="1.5"/>
    <circle class="dot" cx="152.0" cy="64.0" r="1.5"/>
    <circle class="dot" cx="160.0" cy="64.0" r="1.5"/>
    <circle class="dot" cx="168.0" cy="64.0" r="1.5"/>
    <circle class="dot" cx="176.0" cy="64.0" r="1.5"/>
    <circle class="dot" cx="12.0" cy="68.0" r="1.5"/>
    <circle class="dot" cx="16.0" cy="68.0" r="1.5"/>
    <circle class="dot" cx="20.0" cy="68.0" r="1.5"/>
    <circle class="dot" cx="24.0" cy="68.0" r="1.5"/>
    <circle class="dot" cx="28.0" cy="68.0" r="1.5"/>
    <circle class="dot" cx="32.0" cy="68.0" r="1.5"/>
    <circle class="dot" cx="36.0" cy="68.0" r="1.5"/>
    <circle class="dot" cx="40.0" cy="68.0" r="1.5"/>
    <circle class="dot" cx="44.0" cy="68.0" r="1.5"/>
    <circle class="dot" cx="48.0" cy="68.0" r="1.5"/>
    <circle class="dot" cx="52.0" cy="68.0" r="1.5"/>
    <circle class="dot" cx="56.0" cy="68.0" r="1.5"/>
    <circle class="dot" cx="60.0" cy="68.0" r="1.5"/>
    <circle class="dot" cx="64.0" cy="68.0" r="1.5"/>
    <circle class="dot" cx="68.0" cy="68.0" r="1.5"/>
    <circle class="dot" cx="72.0" cy="68.0" r="1.5"/>
    <circle class="dot" cx="76.0" cy="68.0" r="1.5"/>
    <circle class="dot" cx="80.0" cy="68.0" r="1.5"/>
    <circle class="dot" cx="84.0" cy="68.0" r="1.5"/>
    <circle class="dot" cx="92.0" cy="68.0" r="1.5"/>
    <circle class="dot" cx="96.0" cy="68.0" r="1.5"/>
    <circle class="dot" cx="100.0" cy="68.0" r="1.5"/>
    <circle class="dot" cx="108.0" cy="68.0" r="1.5"/>
    <circle class="dot" cx="116.0" cy="68.0" r="1.5"/>
    <circle class="dot" cx="124.0" cy="68.0" r="1.5"/>
    <circle class="dot" cx="132.0" cy="68.0" r="1.5"/>
    <circle class="dot" cx="140.0" cy="68.0" r="1.5"/>
    <circle class="dot" cx="148.0" cy="68.0" r="1.5"/>
    <circle class="dot" cx="164.0" cy="68.0" r="1.5"/>
    <circle class="dot" cx="8.0" cy="72.0" r="1.5"/>
    <circle class="dot" cx="12.0" cy="72.0" r="1.5"/>
    <circle class="dot" cx="16.0" cy="72.0" r="1.5"/>
    <circle class="dot" cx="20.0" cy="72.0" r="1.5"/>
    <circle class="dot" cx="24.0" cy="72.0" r="1.5"/>
    <circle class="dot" cx="28.0" cy="72.0" r="1.5"/>
    <circle class="dot" cx="32.0" cy="72.0" r="1.5"/>
    <circle class="dot" cx="36.0" cy="72.0" r="1.5"/>
    <circle class="dot" cx="40.0" cy="72.0" r="1.5"/>
    <circle class="dot" cx="44.0" cy="72.0" r="1.5"/>
    <circle class="dot" cx="48.0" cy="72.0" r="1.5"/>
    <circle class="dot" cx="52.0" cy="72.0" r="1.5"/>
    <circle class="dot" cx="56.0" cy="72.0" r="1.5"/>
    <circle class="dot" cx="60.0" cy="72.0" r="1.5"/>
    <circle class="dot" cx="64.0" cy="72.0" r="1.5"/>
    <circle class="dot" cx="68.0" cy="72.0" r="1.5"/>
    <circle class="dot" cx="72.0" cy="72.0" r="1.5"/>
    <circle class="dot" cx="76.0" cy="72.0" r="1.5"/>
    <circle class="dot" cx="80.0" cy="72.0" r="1.5"/>
    <circle class="dot" cx="84.0" cy="72.0" r="1.5"/>
    <circle class="dot" cx="88.0" cy="72.0" r="1.5"/>
    <circle class="dot" cx="92.0" cy="72.0" r="1.5"/>
    <circle class="dot" cx="96.0" cy="72.0" r="1.5"/>
    <circle class="dot" cx="100.0" cy="72.0" r="1.5"/>
    <circle class="dot" cx="104.0" cy="72.0" r="1.5"/>
    <circle class="dot" cx="108.0" cy="72.0" r="1.5"/>
    <circle class="dot" cx="112.0" cy="72.0" r="1.5"/>
    <circle class="dot" cx="120.0" cy="72.0" r="1.5"/>
    <circle class="dot" cx="124.0" cy="72.0" r="1.5"/>
    <circle class="dot" cx="128.0" cy="72.0" r="1.5"/>
    <circle class="dot" cx="136.0" cy="72.0" r="1.5"/>
    <circle class="dot" cx="144.0" cy="72.0" r="1.5"/>
    <circle class="dot" cx="152.0" cy="72.0" r="1.5"/>
    <circle class="dot" cx="160.0" cy="72.0" r="1.5"/>
    <circle class="dot" cx="168.0" cy="72.0" r="1.5"/>
    <circle class="dot" cx="4.0" cy="76.0" r="1.5"/>
    <circle class="dot" cx="12.0" cy="76.0" r="1.5"/>
    <circle class="dot" cx="20.0" cy="76.0" r="1.5"/>
    <circle class="dot" cx="24.0" cy="76.0" r="1.5"/>
    <circle class="dot" cx="28.0" cy="76.0" r="1.5"/>
    <circle class="dot" cx="36.0" cy="76.0" r="1.5"/>
    <circle class="dot" cx="40.0" cy="76.0" r="1.5"/>
    <circle class="dot" cx="44.0" cy="76.0" r="1.5"/>
    <circle class="dot" cx="52.0" cy="76.0" r="1.5"/>
    <circle class="dot" cx="56.0" cy="76.0" r="1.5"/>
    <circle class="dot" cx="60.0" cy="76.0" r="1.5"/>
    <circle class="dot" cx="68.0" cy="76.0" r="1.5"/>
    <circle class="dot" cx="72.0" cy="76.0" r="1.5"/>
    <circle class="dot" cx="76.0" cy="76.0" r="1.5"/>
    <circle class="dot" cx="84.0" cy="76.0" r="1.5"/>
    <circle class="dot" cx="92.0" cy="76.0" r="1.5"/>
    <circle class="dot" cx="100.0" cy="76.0" r="1.5"/>
    <circle class="dot" cx="108.0" cy="76.0" r="1.5"/>
    <circle class="dot" cx="116.0" cy="76.0" r="1.5"/>
    <circle class="dot" cx="124.0" cy="76.0" r="1.5"/>
    <circle class="dot" cx="132.0" cy="76.0" r="1.5"/>
    <circle class="dot" cx="140.0" cy="76.0" r="1.5"/>
    <circle class="dot" cx="156.0" cy="76.0" r="1.5"/>
    <circle class="dot" cx="4.0" cy="80.0" r="1.5"/>
    <circle class="dot" cx="8.0" cy="80.0" r="1.5"/>
    <circle class="dot" cx="12.0" cy="80.0" r="1.5"/>
    <circle class="dot" cx="16.0" cy="80.0" r="1.5"/>
    <circle class="dot" cx="20.0" cy="80.0" r="1.5"/>
    <circle class="dot" cx="24.0" cy="80.0" r="1.5"/>
    <circle class="dot" cx="28.0" cy="80.0" r="1.5"/>
    <circle class="dot" cx="32.0" cy="80.0" r="1.5"/>
    <circle class="dot" cx="36.0" cy="80.0" r="1.5"/>
    <circle class="dot" cx="40.0" cy="80.0" r="1.5"/>
    <circle class="dot" cx="44.0" cy="80.0" r="1.5"/>
    <circle class="dot" cx="48.0" cy="80.0" r="1.5"/>
    <circle class="dot" cx="52.0" cy="80.0" r="1.5"/>
    <circle class="dot" cx="56.0" cy="80.0" r="1.5"/>
    <circle class="dot" cx="60.0" cy="80.0" r="1.5"/>
    <circle class="dot" cx="64.0" cy="80.0" r="1.5"/>
    <circle class="dot" cx="68.0" cy="80.0" r="1.5"/>
    <circle class="dot" cx="72.0" cy="80.0" r="1.5"/>
    <circle class="dot" cx="76.0" cy="80.0" r="1.5"/>
    <circle class="dot" cx="80.0" cy="80.0" r="1.5"/>
    <circle class="dot" cx="84.0" cy="80.0" r="1.5"/>
    <circle class="dot" cx="88.0" cy="80.0" r="1.5"/>
    <circle class="dot" cx="92.0" cy="80.0" r="1.5"/>
    <circle class="dot" cx="96.0" cy="80.0" r="1.5"/>
    <circle class="dot" cx="100.0" cy="80.0" r="1.5"/>
    <circle class="dot" cx="104.0" cy="80.0" r="1.5"/>
    <circle class="dot" cx="108.0" cy="80.0" r="1.5"/>
    <circle class="dot" cx="112.0" cy="80.0" r="1.5"/>
    <circle class="dot" cx="116.0" cy="80.0" r="1.5"/>
    <circle class="dot" cx="120.0" cy="80.0" r="1.5"/>
    <circle class="dot" cx="128.0" cy="80.0" r="1.5"/>
    <circle class="dot" cx="136.0" cy="80.0" r="1.5"/>
    <circle class="dot" cx="144.0" cy="80.0" r="1.5"/>
    <circle class="dot" cx="152.0" cy="80.0" r="1.5"/>
    <circle class="dot" cx="160.0" cy="80.0" r="1.5"/>
    <circle class="dot" cx="168.0" cy="80.0" r="1.5"/>
    <circle class="dot" cx="176.0" cy="80.0" r="1.5"/>
    <circle class="dot" cx="4.0" cy="84.0" r="1.5"/>
    <circle class="dot" cx="12.0" cy="84.0" r="1.5"/>
    <circle class="dot" cx="16.0" cy="84.0" r="1.5"/>
    <circle class="dot" cx="20.0" cy="84.0" r="1.5"/>
    <circle class="dot" cx="28.0" cy="84.0" r="1.5"/>
    <circle class="dot" cx="32.0" cy="84.0" r="1.5"/>
    <circle class="dot" cx="36.0" cy="84.0" r="1.5"/>
    <circle class="dot" cx="44.0" cy="84.0" r="1.5"/>
    <circle class="dot" cx="48.0" cy="84.0" r="1.5"/>
    <circle class="dot" cx="52.0" cy="84.0" r="1.5"/>
    <circle class="dot" cx="60.0" cy="84.0" r="1.5"/>
    <circle class="dot" cx="64.0" cy="84.0" r="1.5"/>
    <circle class="dot" cx="68.0" cy="84.0" r="1.5"/>
    <circle class="dot" cx="76.0" cy="84.0" r="1.5"/>
    <circle class="dot" cx="80.0" cy="84.0" r="1.5"/>
    <circle class="dot" cx="84.0" cy="84.0" r="1.5"/>
    <circle class="dot" cx="92.0" cy="84.0" r="1.5"/>
    <circle class="dot" cx="100.0" cy="84.0" r="1.5"/>
    <circle class="dot" cx="108.0" cy="84.0" r="1.5"/>
    <circle class="dot" cx="116.0" cy="84.0" r="1.5"/>
    <circle class="dot" cx="124.0" cy="84.0" r="1.5"/>
    <circle class="dot" cx="132.0" cy="84.0" r="1.5"/>
    <circle class="dot" cx="140.0" cy="84.0" r="1.5"/>
    <circle class="dot" cx="148.0" cy="84.0" r="1.5"/>
    <circle class="dot" cx="8.0" cy="88.0" r="1.5"/>
    <circle class="dot" cx="12.0" cy="88.0" r="1.5"/>
    <circle class="dot" cx="16.0" cy="88.0" r="1.5"/>
    <circle class="dot" cx="20.0" cy="88.0" r="1.5"/>
    <circle class="dot" cx="24.0" cy="88.0" r="1.5"/>
    <circle class="dot" cx="28.0" cy="88.0" r="1.5"/>
    <circle class="dot" cx="32.0" cy="88.0" r="1.5"/>
    <circle class="dot" cx="36.0" cy="88.0" r="1.5"/>
    <circle class="dot" cx="40.0" cy="88.0" r="1.5"/>
    <circle class="dot" cx="44.0" cy="88.0" r="1.5"/>
    <circle class="dot" cx="48.0" cy="88.0" r="1.5"/>
    <circle class="dot" cx="52.0" cy="88.0" r="1.5"/>
    <circle class="dot" cx="56.0" cy="88.0" r="1.5"/>
    <circle class="dot" cx="60.0" cy="88.0" r="1.5"/>
    <circle class="dot" cx="64.0" cy="88.0" r="1.5"/>
    <circle class="dot" cx="68.0" cy="88.0" r="1.5"/>
    <circle class="dot" cx="72.0" cy="88.0" r="1.5"/>
    <circle class="dot" cx="76.0" cy="88.0" r="1.5"/>
    <circle class="dot" cx="80.0" cy="88.0" r="1.5"/>
    <circle class="dot" cx="84.0" cy="88.0" r="1.5"/>
    <circle class="dot" cx="88.0" cy="88.0" r="1.5"/>
    <circle class="dot" cx="92.0" cy="88.0" r="1.5"/>
    <circle class="dot" cx="96.0" cy="88.0" r="1.5"/>
    <circle class="dot" cx="104.0" cy="88.0" r="1.5"/>
    <circle class="dot" cx="108.0" cy="88.0" r="1.5"/>
    <circle class="dot" cx="112.0" cy="88.0" r="1.5"/>
    <circle class="dot" cx="120.0" cy="88.0" r="1.5"/>
    <circle class="dot" cx="128.0" cy="88.0" r="1.5"/>
    <circle class="dot" cx="136.0" cy="88.0" r="1.5"/>
    <circle class="dot" cx="144.0" cy="88.0" r="1.5"/>
    <circle class="dot" cx="152.0" cy="88.0" r="1.5"/>
    <circle class="dot" cx="160.0" cy="88.0" r="1.5"/>
    <circle class="dot" cx="168.0" cy="88.0" r="1.5"/>
    <circle class="dot" cx="4.0" cy="92.0" r="1.5"/>
    <circle class="dot" cx="12.0" cy="92.0" r="1.5"/>
    <circle class="dot" cx="20.0" cy="92.0" r="1.5"/>
    <circle class="dot" cx="28.0" cy="92.0" r="1.5"/>
    <circle class="dot" cx="36.0" cy="92.0" r="1.5"/>
    <circle class="dot" cx="44.0" cy="92.0" r="1.5"/>
    <circle class="dot" cx="52.0" cy="92.0" r="1.5"/>
    <circle class="dot" cx="60.0" cy="92.0" r="1.5"/>
    <circle class="dot" cx="68.0" cy="92.0" r="1.5"/>
    <circle class="dot" cx="76.0" cy="92.0" r="1.5"/>
    <circle class="dot" cx="84.0" cy="92.0" r="1.5"/>
    <circle class="dot" cx="92.0" cy="92.0" r="1.5"/>
    <circle class="dot" cx="100.0" cy="92.0" r="1.5"/>
    <circle class="dot" cx="108.0" cy="92.0" r="1.5"/>
    <circle class="dot" cx="116.0" cy="92.0" r="1.5"/>
    <circle class="dot" cx="124.0" cy="92.0" r="1.5"/>
    <circle class="dot" cx="140.0" cy="92.0" r="1.5"/>
    <circle class="dot" cx="4.0" cy="96.0" r="1.5"/>
    <circle class="dot" cx="8.0" cy="96.0" r="1.5"/>
    <circle class="dot" cx="12.0" cy="96.0" r="1.5"/>
    <circle class="dot" cx="16.0" cy="96.0" r="1.5"/>
    <circle class="dot" cx="20.0" cy="96.0" r="1.5"/>
    <circle class="dot" cx="24.0" cy="96.0" r="1.5"/>
    <circle class="dot" cx="28.0" cy="96.0" r="1.5"/>
    <circle class="dot" cx="32.0" cy="96.0" r="1.5"/>
    <circle class="dot" cx="36.0" cy="96.0" r="1.5"/>
    <circle class="dot" cx="40.0" cy="96.0" r="1.5"/>
    <circle class="dot" cx="44.0" cy="96.0" r="1.5"/>
    <circle class="dot" cx="48.0" cy="96.0" r="1.5"/>
    <circle class="dot" cx="52.0" cy="96.0" r="1.5"/>
    <circle class="dot" cx="56.0" cy="96.0" r="1.5"/>
    <circle class="dot" cx="60.0" cy="96.0" r="1.5"/>
    <circle class="dot" cx="64.0" cy="96.0" r="1.5"/>
    <circle class="dot" cx="68.0" cy="96.0" r="1.5"/>
    <circle class="dot" cx="72.0" cy="96.0" r="1.5"/>
    <circle class="dot" cx="76.0" cy="96.0" r="1.5"/>
    <circle class="dot" cx="80.0" cy="96.0" r="1.5"/>
    <circle class="dot" cx="84.0" cy="96.0" r="1.5"/>
    <circle class="dot" cx="88.0" cy="96.0" r="1.5"/>
    <circle class="dot" cx="92.0" cy="96.0" r="1.5"/>
    <circle class="dot" cx="96.0" cy="96.0" r="1.5"/>
    <circle class="dot" cx="100.0" cy="96.0" r="1.5"/>
    <circle class="dot" cx="104.0" cy="96.0" r="1.5"/>
    <circle class="dot" cx="112.0" cy="96.0" r="1.5"/>
    <circle class="dot" cx="116.0" cy="96.0" r="1.5"/>
    <circle class="dot" cx="120.0" cy="96.0" r="1.5"/>
    <circle class="dot" cx="128.0" cy="96.0" r="1.5"/>
    <circle class="dot" cx="136.0" cy="96.0" r="1.5"/>
    <circle class="dot" cx="144.0" cy="96.0" r="1.5"/>
    <circle class="dot" cx="152.0" cy="96.0" r="1.5"/>
    <circle class="dot" cx="160.0" cy="96.0" r="1.5"/>
    <circle class="dot" cx="168.0" cy="96.0" r="1.5"/>
    <circle class="dot" cx="176.0" cy="96.0" r="1.5"/>
    <circle class="dot" cx="4.0" cy="100.0" r="1.5"/>
    <circle class="dot" cx="12.0" cy="100.0" r="1.5"/>
    <circle class="dot" cx="20.0" cy="100.0" r="1.5"/>
    <circle class="dot" cx="28.0" cy="100.0" r="1.5"/>
    <circle class="dot" cx="32.0" cy="100.0" r="1.5"/>
    <circle class="dot" cx="36.0" cy="100.0" r="1.5"/>
    <circle class="dot" cx="44.0" cy="100.0" r="1.5"/>
    <circle class="dot" cx="48.0" cy="100.0" r="1.5"/>
    <circle class="dot" cx="52.0" cy="100.0" r="1.5"/>
    <circle class="dot" cx="60.0" cy="100.0" r="1.5"/>
    <circle class="dot" cx="64.0" cy="100.0" r="1.5"/>
    <circle class="dot" cx="68.0" cy="100.0" r="1.5"/>
    <circle class="dot" cx="76.0" cy="100.0" r="1.5"/>
    <circle class="dot" cx="84.0" cy="100.0" r="1.5"/>
    <circle class="dot" cx="92.0" cy="100.0" r="1.5"/>
    <circle class="dot" cx="100.0" cy="100.0" r="1.5"/>
    <circle class="dot" cx="108.0" cy="100.0" r="1.5"/>
    <circle class="dot" cx="116.0" cy="100.0" r="1.5"/>
    <circle class="dot" cx="124.0" cy="100.0" r="1.5"/>
    <circle class="dot" cx="132.0" cy="100.0" r="1.5"/>
    <circle class="dot" cx="148.0" cy="100.0" r="1.5"/>
    <circle class="dot" cx="8.0" cy="104.0" r="1.5"/>
    <circle class="dot" cx="12.0" cy="104.0" r="1.5"/>
    <circle class="dot" cx="16.0" cy="104.0" r="1.5"/>
    <circle class="dot" cx="20.0" cy="104.0" r="1.5"/>
    <circle class="dot" cx="24.0" cy="104.0" r="1.5"/>
    <circle class="dot" cx="28.0" cy="104.0" r="1.5"/>
    <circle class="dot" cx="32.0" cy="104.0" r="1.5"/>
    <circle class="dot" cx="36.0" cy="104.0" r="1.5"/>
    <circle class="dot" cx="40.0" cy="104.0" r="1.5"/>
    <circle class="dot" cx="44.0" cy="104.0" r="1.5"/>
    <circle class="dot" cx="48.0" cy="104.0" r="1.5"/>
    <circle class="dot" cx="52.0" cy="104.0" r="1.5"/>
    <circle class="dot" cx="56.0" cy="104.0" r="1.5"/>
    <circle class="dot" cx="60.0" cy="104.0" r="1.5"/>
    <circle class="dot" cx="64.0" cy="104.0" r="1.5"/>
    <circle class="dot" cx="68.0" cy="104.0" r="1.5"/>
    <circle class="dot" cx="72.0" cy="104.0" r="1.5"/>
    <circle class="dot" cx="76.0" cy="104.0" r="1.5"/>
    <circle class="dot" cx="80.0" cy="104.0" r="1.5"/>
    <circle class="dot" cx="88.0" cy="104.0" r="1.5"/>
    <circle class="dot" cx="92.0" cy="104.0" r="1.5"/>
    <circle class="dot" cx="96.0" cy="104.0" r="1.5"/>
    <circle class="dot" cx="104.0" cy="104.0" r="1.5"/>
    <circle class="dot" cx="112.0" cy="104.0" r="1.5"/>
    <circle class="dot" cx="120.0" cy="104.0" r="1.5"/>
    <circle class="dot" cx="128.0" cy="104.0" r="1.5"/>
    <circle class="dot" cx="136.0" cy="104.0" r="1.5"/>
    <circle class="dot" cx="144.0" cy="104.0" r="1.5"/>
    <circle class="dot" cx="152.0" cy="104.0" r="1.5"/>
    <circle class="dot" cx="168.0" cy="104.0" r="1.5"/>
    <circle class="dot" cx="4.0" cy="108.0" r="1.5"/>
    <circle class="dot" cx="12.0" cy="108.0" r="1.5"/>
    <circle class="dot" cx="20.0" cy="108.0" r="1.5"/>
    <circle class="dot" cx="28.0" cy="108.0" r="1.5"/>
    <circle class="dot" cx="36.0" cy="108.0" r="1.5"/>
    <circle class="dot" cx="44.0" cy="108.0" r="1.5"/>
    <circle class="dot" cx="52.0" cy="108.0" r="1.5"/>
    <circle class="dot" cx="60.0" cy="108.0" r="1.5"/>
    <circle class="dot" cx="68.0" cy="108.0" r="1.5"/>
    <circle class="dot" cx="76.0" cy="108.0" r="1.5"/>
    <circle class="dot" cx="84.0" cy="108.0" r="1.5"/>
    <circle class="dot" cx="92.0" cy="108.0" r="1.5"/>
    <circle class="dot" cx="100.0" cy="108.0" r="1.5"/>
    <circle class="dot" cx="108.0" cy="108.0" r="1.5"/>
    <circle class="dot" cx="116.0" cy="108.0" r="1.5"/>
    <circle class="dot" cx="124.0" cy="108.0" r="1.5"/>
    <circle class="dot" cx="4.0" cy="112.0" r="1.5"/>
    <circle class="dot" cx="8.0" cy="112.0" r="1.5"/>
    <circle class="dot" cx="16.0" cy="112.0" r="1.5"/>
    <circle class="dot" cx="20.0" cy="112.0" r="1.5"/>
    <circle class="dot" cx="24.0" cy="112.0" r="1.5"/>
    <circle class="dot" cx="28.0" cy="112.0" r="1.5"/>
    <circle class="dot" cx="32.0" cy="112.0" r="1.5"/>
    <circle class="dot" cx="36.0" cy="112.0" r="1.5"/>
    <circle class="dot" cx="40.0" cy="112.0" r="1.5"/>
    <circle class="dot" cx="44.0" cy="112.0" r="1.5"/>
    <circle class="dot" cx="48.0" cy="112.0" r="1.5"/>
    <circle class="dot" cx="52.0" cy="112.0" r="1.5"/>
    <circle class="dot" cx="56.0" cy="112.0" r="1.5"/>
    <circle class="dot" cx="60.0" cy="112.0" r="1.5"/>
    <circle class="dot" cx="64.0" cy="112.0" r="1.5"/>
    <circle class="dot" cx="68.0" cy="112.0" r="1.5"/>
    <circle class="dot" cx="72.0" cy="112.0" r="1.5"/>
    <circle class="dot" cx="80.0" cy="112.0" r="1.5"/>
    <circle class="dot" cx="84.0" cy="112.0" r="1.5"/>
    <circle class="dot" cx="88.0" cy="112.0" r="1.5"/>
    <circle class="dot" cx="96.0" cy="112.0" r="1.5"/>
    <circle class="dot" cx="104.0" cy="112.0" r="1.5"/>
    <circle class="dot" cx="112.0" cy="112.0" r="1.5"/>
    <circle class="dot" cx="120.0" cy="112.0" r="1.5"/>
    <circle class="dot" cx="128.0" cy="112.0" r="1.5"/>
    <circle class="dot" cx="136.0" cy="112.0" r="1.5"/>
    <circle class="dot" cx="144.0" cy="112.0" r="1.5"/>
    <circle class="dot" cx="152.0" cy="112.0" r="1.5"/>
    <circle class="dot" cx="160.0" cy="112.0" r="1.5"/>
    <circle class="dot" cx="4.0" cy="116.0" r="1.5"/>
    <circle class="dot" cx="12.0" cy="116.0" r="1.5"/>
    <circle class="dot" cx="20.0" cy="116.0" r="1.5"/>
    <circle class="dot" cx="28.0" cy="116.0" r="1.5"/>
    <circle class="dot" cx="36.0" cy="116.0" r="1.5"/>
    <circle class="dot" cx="44.0" cy="116.0" r="1.5"/>
    <circle class="dot" cx="52.0" cy="116.0" r="1.5"/>
    <circle class="dot" cx="60.0" cy="116.0" r="1.5"/>
    <circle class="dot" cx="68.0" cy="116.0" r="1.5"/>
    <circle class="dot" cx="76.0" cy="116.0" r="1.5"/>
    <circle class="dot" cx="84.0" cy="116.0" r="1.5"/>
    <circle class="dot" cx="92.0" cy="116.0" r="1.5"/>
    <circle class="dot" cx="100.0" cy="116.0" r="1.5"/>
    <circle class="dot" cx="108.0" cy="116.0" r="1.5"/>
    <circle class="dot" cx="116.0" cy="116.0" r="1.5"/>
    <circle class="dot" cx="132.0" cy="116.0" r="1.5"/>
    <circle class="dot" cx="8.0" cy="120.0" r="1.5"/>
    <circle class="dot" cx="16.0" cy="120.0" r="1.5"/>
    <circle class="dot" cx="24.0" cy="120.0" r="1.5"/>
    <circle class="dot" cx="28.0" cy="120.0" r="1.5"/>
    <circle class="dot" cx="32.0" cy="120.0" r="1.5"/>
    <circle class="dot" cx="40.0" cy="120.0" r="1.5"/>
    <circle class="dot" cx="44.0" cy="120.0" r="1.5"/>
    <circle class="dot" cx="48.0" cy="120.0" r="1.5"/>
    <circle class="dot" cx="56.0" cy="120.0" r="1.5"/>
    <circle class="dot" cx="60.0" cy="120.0" r="1.5"/>
    <circle class="dot" cx="64.0" cy="120.0" r="1.5"/>
    <circle class="dot" cx="72.0" cy="120.0" r="1.5"/>
    <circle class="dot" cx="80.0" cy="120.0" r="1.5"/>
    <circle class="dot" cx="88.0" cy="120.0" r="1.5"/>
    <circle class="dot" cx="96.0" cy="120.0" r="1.5"/>
    <circle class="dot" cx="104.0" cy="120.0" r="1.5"/>
    <circle class="dot" cx="112.0" cy="120.0" r="1.5"/>
    <circle class="dot" cx="120.0" cy="120.0" r="1.5"/>
    <circle class="dot" cx="128.0" cy="120.0" r="1.5"/>
    <circle class="dot" cx="136.0" cy="120.0" r="1.5"/>
    <circle class="dot" cx="152.0" cy="120.0" r="1.5"/>
    <circle class="dot" cx="12.0" cy="124.0" r="1.5"/>
    <circle class="dot" cx="20.0" cy="124.0" r="1.5"/>
    <circle class="dot" cx="28.0" cy="124.0" r="1.5"/>
    <circle class="dot" cx="36.0" cy="124.0" r="1.5"/>
    <circle class="dot" cx="44.0" cy="124.0" r="1.5"/>
    <circle class="dot" cx="52.0" cy="124.0" r="1.5"/>
    <circle class="dot" cx="60.0" cy="124.0" r="1.5"/>
    <circle class="dot" cx="68.0" cy="124.0" r="1.5"/>
    <circle class="dot" cx="76.0" cy="124.0" r="1.5"/>
    <circle class="dot" cx="84.0" cy="124.0" r="1.5"/>
    <circle class="dot" cx="92.0" cy="124.0" r="1.5"/>
    <circle class="dot" cx="108.0" cy="124.0" r="1.5"/>
    <circle class="dot" cx="8.0" cy="128.0" r="1.5"/>
    <circle class="dot" cx="16.0" cy="128.0" r="1.5"/>
    <circle class="dot" cx="20.0" cy="128.0" r="1.5"/>
    <circle class="dot" cx="24.0" cy="128.0" r="1.5"/>
    <circle class="dot" cx="32.0" cy="128.0" r="1.5"/>
    <circle class="dot" cx="36.0" cy="128.0" r="1.5"/>
    <circle class="dot" cx="40.0" cy="128.0" r="1.5"/>
    <circle class="dot" cx="48.0" cy="128.0" r="1.5"/>
    <circle class="dot" cx="52.0" cy="128.0" r="1.5"/>
    <circle class="dot" cx="56.0" cy="128.0" r="1.5"/>
    <circle class="dot" cx="64.0" cy="128.0" r="1.5"/>
    <circle class="dot" cx="68.0" cy="128.0" r="1.5"/>
    <circle class="dot" cx="72.0" cy="128.0" r="1.5"/>
    <circle class="dot" cx="80.0" cy="128.0" r="1.5"/>
    <circle class="dot" cx="88.0" cy="128.0" r="1.5"/>
    <circle class="dot" cx="96.0" cy="128.0" r="1.5"/>
    <circle class="dot" cx="104.0" cy="128.0" r="1.5"/>
    <circle class="dot" cx="112.0" cy="128.0" r="1.5"/>
    <circle class="dot" cx="120.0" cy="128.0" r="1.5"/>
    <circle class="dot" cx="128.0" cy="128.0" r="1.5"/>
    <circle class="dot" cx="136.0" cy="128.0" r="1.5"/>
    <circle class="dot" cx="144.0" cy="128.0" r="1.5"/>
    <circle class="dot" cx="12.0" cy="132.0" r="1.5"/>
    <circle class="dot" cx="20.0" cy="132.0" r="1.5"/>
    <circle class="dot" cx="28.0" cy="132.0" r="1.5"/>
    <circle class="dot" cx="36.0" cy="132.0" r="1.5"/>
    <circle class="dot" cx="44.0" cy="132.0" r="1.5"/>
    <circle class="dot" cx="52.0" cy="132.0" r="1.5"/>
    <circle class="dot" cx="60.0" cy="132.0" r="1.5"/>
    <circle class="dot" cx="68.0" cy="132.0" r="1.5"/>
    <circle class="dot" cx="76.0" cy="132.0" r="1.5"/>
    <circle class="dot" cx="84.0" cy="132.0" r="1.5"/>
    <circle class="dot" cx="92.0" cy="132.0" r="1.5"/>
    <circle class="dot" cx="100.0" cy="132.0" r="1.5"/>
    <circle class="dot" cx="116.0" cy="132.0" r="1.5"/>
    <circle class="dot" cx="8.0" cy="136.0" r="1.5"/>
    <circle class="dot" cx="16.0" cy="136.0" r="1.5"/>
    <circle class="dot" cx="24.0" cy="136.0" r="1.5"/>
    <circle class="dot" cx="32.0" cy="136.0" r="1.5"/>
    <circle class="dot" cx="40.0" cy="136.0" r="1.5"/>
    <circle class="dot" cx="48.0" cy="136.0" r="1.5"/>
    <circle class="dot" cx="56.0" cy="136.0" r="1.5"/>
    <circle class="dot" cx="64.0" cy="136.0" r="1.5"/>
    <circle class="dot" cx="72.0" cy="136.0" r="1.5"/>
    <circle class="dot" cx="80.0" cy="136.0" r="1.5"/>
    <circle class="dot" cx="88.0" cy="136.0" r="1.5"/>
    <circle class="dot" cx="96.0" cy="136.0" r="1.5"/>
    <circle class="dot" cx="104.0" cy="136.0" r="1.5"/>
    <circle class="dot" cx="112.0" cy="136.0" r="1.5"/>
    <circle class="dot" cx="120.0" cy="136.0" r="1.5"/>
    <circle class="dot" cx="136.0" cy="136.0" r="1.5"/>
    <circle class="dot" cx="12.0" cy="140.0" r="1.5"/>
    <circle class="dot" cx="28.0" cy="140.0" r="1.5"/>
    <circle class="dot" cx="36.0" cy="140.0" r="1.5"/>
    <circle class="dot" cx="44.0" cy="140.0" r="1.5"/>
    <circle class="dot" cx="52.0" cy="140.0" r="1.5"/>
    <circle class="dot" cx="60.0" cy="140.0" r="1.5"/>
    <circle class="dot" cx="68.0" cy="140.0" r="1.5"/>
    <circle class="dot" cx="76.0" cy="140.0" r="1.5"/>
    <circle class="dot" cx="92.0" cy="140.0" r="1.5"/>
    <circle class="dot" cx="16.0" cy="144.0" r="1.5"/>
    <circle class="dot" cx="24.0" cy="144.0" r="1.5"/>
    <circle class="dot" cx="32.0" cy="144.0" r="1.5"/>
    <circle class="dot" cx="40.0" cy="144.0" r="1.5"/>
    <circle class="dot" cx="48.0" cy="144.0" r="1.5"/>
    <circle class="dot" cx="56.0" cy="144.0" r="1.5"/>
    <circle class="dot" cx="64.0" cy="144.0" r="1.5"/>
    <circle class="dot" cx="72.0" cy="144.0" r="1.5"/>
    <circle class="dot" cx="80.0" cy="144.0" r="1.5"/>
    <circle class="dot" cx="88.0" cy="144.0" r="1.5"/>
    <circle class="dot" cx="96.0" cy="144.0" r="1.5"/>
    <circle class="dot" cx="104.0" cy="144.0" r="1.5"/>
    <circle class="dot" cx="112.0" cy="144.0" r="1.5"/>
    <circle class="dot" cx="120.0" cy="144.0" r="1.5"/>
    <circle class="dot" cx="128.0" cy="144.0" r="1.5"/>
    <circle class="dot" cx="20.0" cy="148.0" r="1.5"/>
    <circle class="dot" cx="36.0" cy="148.0" r="1.5"/>
    <circle class="dot" cx="52.0" cy="148.0" r="1.5"/>
    <circle class="dot" cx="68.0" cy="148.0" r="1.5"/>
    <circle class="dot" cx="84.0" cy="148.0" r="1.5"/>
    <circle class="dot" cx="16.0" cy="152.0" r="1.5"/>
    <circle class="dot" cx="24.0" cy="152.0" r="1.5"/>
    <circle class="dot" cx="32.0" cy="152.0" r="1.5"/>
    <circle class="dot" cx="40.0" cy="152.0" r="1.5"/>
    <circle class="dot" cx="48.0" cy="152.0" r="1.5"/>
    <circle class="dot" cx="56.0" cy="152.0" r="1.5"/>
    <circle class="dot" cx="64.0" cy="152.0" r="1.5"/>
    <circle class="dot" cx="72.0" cy="152.0" r="1.5"/>
    <circle class="dot" cx="80.0" cy="152.0" r="1.5"/>
    <circle class="dot" cx="88.0" cy="152.0" r="1.5"/>
    <circle class="dot" cx="104.0" cy="152.0" r="1.5"/>
    <circle class="dot" cx="120.0" cy="152.0" r="1.5"/>
    <circle class="dot" cx="24.0" cy="160.0" r="1.5"/>
    <circle class="dot" cx="32.0" cy="160.0" r="1.5"/>
    <circle class="dot" cx="40.0" cy="160.0" r="1.5"/>
    <circle class="dot" cx="48.0" cy="160.0" r="1.5"/>
    <circle class="dot" cx="56.0" cy="160.0" r="1.5"/>
    <circle class="dot" cx="64.0" cy="160.0" r="1.5"/>
    <circle class="dot" cx="72.0" cy="160.0" r="1.5"/>
    <circle class="dot" cx="80.0" cy="160.0" r="1.5"/>
    <circle class="dot" cx="88.0" cy="160.0" r="1.5"/>
    <circle class="dot" cx="96.0" cy="160.0" r="1.5"/>
    <circle class="dot" cx="112.0" cy="160.0" r="1.5"/>
    <circle class="dot" cx="40.0" cy="168.0" r="1.5"/>
    <circle class="dot" cx="56.0" cy="168.0" r="1.5"/>
    <circle class="dot" cx="72.0" cy="168.0" r="1.5"/>
    <circle class="dot" cx="48.0" cy="176.0" r="1.5"/>
    <circle class="dot" cx="64.0" cy="176.0" r="1.5"/>
  </g>
</svg>